<svg width="40" height="40" viewBox="0 0 40 40" fill="none" xmlns="http://www.w3.org/2000/svg">
<g clip-path="url(#clip0_349_11)">
<path d="M11.1111 25.8824H31.1111C32.3333 25.8824 33.3333 26.9412 33.3333 28.2353C33.3333 29.5294 32.3333 30.5882 31.1111 30.5882H8.88889C7.66667 30.5882 6.66667 29.5294 6.66667 28.2353V4.70588H2.22222C1 4.70588 0 3.64706 0 2.35294C0 1.05882 1 0 2.22222 0H8.88889C10.1111 0 11.1111 1.05882 11.1111 2.35294V7.05882H40L31.1111 23.5294H11.1111V25.8824ZM10 32.9412C11.8444 32.9412 13.3333 34.5176 13.3333 36.4706C13.3333 38.4235 11.8444 40 10 40C8.15556 40 6.66667 38.4235 6.66667 36.4706C6.66667 34.5176 8.15556 32.9412 10 32.9412ZM30 32.9412C31.8444 32.9412 33.3333 34.5176 33.3333 36.4706C33.3333 38.4235 31.8444 40 30 40C28.1556 40 26.6667 38.4235 26.6667 36.4706C26.6667 34.5176 28.1556 32.9412 30 32.9412Z" fill="#49454F"/>
</g>
<defs>
<clipPath id="clip0_349_11">
<rect width="40" height="40" fill="white"/>
</clipPath>
</defs>
</svg>
