<svg width="285" height="534" viewBox="0 0 285 534" fill="none" xmlns="http://www.w3.org/2000/svg">
<path d="M5.5 52.5L30 69.5V86L45 69.5L52.5 13H68L81.5 52.5L130.5 1H139.5V40.5L94 86L156.5 69.5V94L94 119.5H81.5V130.5H94L139.5 119.5L123 150L94 165.5L112 183.5L87 193.5H35.5H30L19.5 205L52.5 209L97.5 199.5L103.5 205L81.5 222.5L35.5 232L5.5 222.5L1 254.5H68L63 267.5L5.5 280.5V307L15 330H1V415M1 415L42.5 468L58.5 463.5L42.5 437.5L46 397L58.5 378L63 443.5L68 451.5L94 437.5L74.5 407.5V370.5L108 429L124 411.5L103.5 402.5L81.5 349.5V340L132.5 397L148.5 370.5L123 358.5L87 330V320.5L132.5 330L160 358.5L170.5 340L153 330L148.5 267.5L160 275.5L176 325.5L182 315.5L170.5 280.5L166 262L178.5 235L182 254.5L193.5 193.5L202.5 183.5V232L219.5 199.5L246.5 176V193.5L219.5 267.5L274 262L283.5 267.5L246.5 286.5L214 294.5L202.5 307H219.5L263.5 294.5L268.5 307L238.5 330H206.5L254 370.5L246.5 378L202.5 370.5L186.5 349.5L172 367L206.5 388H233V397L219.5 402.5H193.5L166 397L160 392.5H153L145.5 399.5L166 415L214 422L197 434.5L172 443.5L139.5 422L129 431.5L176 481L166 486L132.5 476.5L112 443.5L87 463.5L103.5 486L139.5 498.5L123 510L103.5 515H74.5L68 519L74.5 532.5L37 529L19.5 504.5H5.5L1 515L15 532.5L1 529V415Z" stroke="black"/>
</svg>
