<svg width="40" height="40" viewBox="0 0 40 40" fill="none" xmlns="http://www.w3.org/2000/svg">
<path fill-rule="evenodd" clip-rule="evenodd" d="M7.03612 8.94C8.72211 7.25459 10.9546 6.22671 13.3313 6.04153C15.708 5.85635 18.0728 6.52606 19.9995 7.93C22.0349 6.45738 24.5498 5.80453 27.0445 6.10122C29.5392 6.39791 31.8309 7.62242 33.4641 9.53136C35.0974 11.4403 35.9525 13.8939 35.8596 16.4044C35.7668 18.915 34.7326 21.2986 32.9628 23.0817L23.5345 32.51C22.5968 33.4474 21.3253 33.9739 19.9995 33.9739C18.6736 33.9739 17.4021 33.4474 16.4645 32.51L7.03612 23.0833C5.1609 21.208 4.10742 18.6646 4.10742 16.0125C4.10742 13.3605 5.1609 10.8153 7.03612 8.94Z" fill="#49454F"/>
</svg>
